<?xml version="1.0" encoding="utf-8"?>
<!-- Generator: Adobe Illustrator 19.0.0, SVG Export Plug-In . SVG Version: 6.00 Build 0)  -->
<svg version="1.1" id="Layer_1" xmlns="http://www.w3.org/2000/svg" xmlns:xlink="http://www.w3.org/1999/xlink" x="0px" y="0px"
	 viewBox="0 0 20 20" style="enable-background:new 0 0 20 20;" xml:space="preserve">
<style type="text/css">
	.st0{fill:#FFFFFF;}
</style>
<g id="XMLID_1_">
	<path id="XMLID_7_" class="st0" d="M10,3.7c-3.1,0-5.6,2.5-5.6,5.6S6.9,15,10,15s5.6-2.5,5.6-5.6S13.1,3.7,10,3.7z M10,13.8
		c-2.5,0-4.5-2-4.5-4.5s2-4.5,4.5-4.5s4.5,2,4.5,4.5S12.5,13.8,10,13.8z"/>
	<path id="XMLID_12_" class="st0" d="M10,5.7c-2,0-3.7,1.6-3.7,3.7c0,2,1.6,3.7,3.7,3.7c2,0,3.7-1.6,3.7-3.7C13.7,7.3,12,5.7,10,5.7
		z M10,6.7c0.4,0,0.8,0.1,1.1,0.3l-0.5,0.7c-0.2-0.1-0.4-0.1-0.6-0.1c-0.2,0-0.4,0-0.6,0.1L8.9,6.9C9.2,6.8,9.6,6.7,10,6.7z
		 M7.4,9.7c0-0.1,0-0.2,0-0.3c0-0.7,0.3-1.4,0.7-1.8l0.5,0.7C8.4,8.5,8.3,8.9,8.3,9.3c0,0,0,0,0,0.1L7.4,9.7z M9.5,11.9
		c-0.8-0.1-1.5-0.6-1.8-1.3l0.9-0.3c0.2,0.3,0.6,0.6,1,0.7V11.9z M9.3,9.3c0-0.4,0.3-0.7,0.7-0.7s0.7,0.3,0.7,0.7
		c0,0.4-0.3,0.7-0.7,0.7S9.3,9.7,9.3,9.3z M10.5,11.9V11c0.4-0.1,0.7-0.4,1-0.7l0.9,0.3C11.9,11.3,11.3,11.8,10.5,11.9z M11.7,9.4
		C11.7,9.4,11.7,9.3,11.7,9.4c0-0.5-0.1-0.8-0.4-1.1l0.5-0.7c0.4,0.5,0.7,1.1,0.7,1.8c0,0.1,0,0.2,0,0.3L11.7,9.4z"/>
</g>
</svg>
