<?xml version="1.0" encoding="utf-8"?>
<!-- Generator: Adobe Illustrator 19.0.0, SVG Export Plug-In . SVG Version: 6.00 Build 0)  -->
<svg version="1.1" id="Layer_1" xmlns="http://www.w3.org/2000/svg" xmlns:xlink="http://www.w3.org/1999/xlink" x="0px" y="0px"
	 viewBox="0 0 20 20" style="enable-background:new 0 0 20 20;" xml:space="preserve">
<style type="text/css">
	.st0{fill:#FFFFFF;}
</style>
<g id="XMLID_5_">
	<path id="XMLID_19_" class="st0" d="M12.9,4.7h-1.5C11.3,4,10.7,3.4,10,3.4S8.7,4,8.6,4.7H7.1C6.5,4.7,6,5.2,6,5.8V13
		c0,0.6,0.5,1.1,1.1,1.1h5.8c0.6,0,1.1-0.5,1.1-1.1V5.8C14,5.2,13.5,4.7,12.9,4.7z M10,4.4c0.3,0,0.5,0.2,0.5,0.5
		c0,0.2-0.2,0.4-0.5,0.4S9.5,5.1,9.5,4.9C9.5,4.6,9.7,4.4,10,4.4z M13,13.1H7V5.7h1l0,0v0.6c0,0.2,0.2,0.4,0.4,0.4h3.2
		c0.2,0,0.4-0.1,0.4-0.4V5.7l0,0h1V13.1z"/>
	<g id="XMLID_14_">
		<polygon id="XMLID_18_" class="st0" points="9.4,11.4 7.8,9.8 8.6,8.8 9.4,9.6 11.4,7.8 12.2,8.8 		"/>
	</g>
</g>
</svg>
