<?xml version="1.0" encoding="utf-8"?>
<!-- Generator: Adobe Illustrator 19.0.0, SVG Export Plug-In . SVG Version: 6.00 Build 0)  -->
<svg version="1.1" id="Layer_1" xmlns="http://www.w3.org/2000/svg" xmlns:xlink="http://www.w3.org/1999/xlink" x="0px" y="0px"
	 viewBox="0 0 20 20" style="enable-background:new 0 0 20 20;" xml:space="preserve">
<style type="text/css">
	.st0{fill:#FFFFFF;}
</style>
<g id="XMLID_1_">
	<g id="XMLID_9_">
		<path id="XMLID_11_" class="st0" d="M14.5,4.6h-9c-0.4,0-0.7,0.3-0.7,0.7v2.6c0,0.4,0.3,0.7,0.7,0.7h9c0.4,0,0.7-0.3,0.7-0.7V5.2
			C15.1,4.9,14.9,4.6,14.5,4.6z M14.1,7.8H5.7V6.9h8.5V7.8z"/>
	</g>
	<path id="XMLID_12_" class="st0" d="M12.8,9.9c-0.3-0.1-0.6,0.1-0.7,0.4c-0.1,0.3,0.1,0.6,0.4,0.7c0.4,0.1,0.4,0.4,0.4,0.6
		c0,0.3-0.3,0.7-0.8,0.7c-0.2,0-0.5,0-0.6-0.2c-0.2-0.2-0.1-0.5-0.1-0.5l0-2.4h-1.1v2.3c0,0.2,0,0.8,0.4,1.3
		c0.2,0.3,0.7,0.6,1.4,0.6c1.1,0,1.8-0.8,1.9-1.6C14.1,10.8,13.6,10.1,12.8,9.9z"/>
	<path id="XMLID_6_" class="st0" d="M9.8,9.6C9.8,9.5,9.8,9.5,9.8,9.6l-1.1,0c0,0,0,0,0,0v2.4l0,0.1c0,0,0,0.3-0.1,0.5
		c-0.1,0.2-0.4,0.2-0.6,0.2c-0.5,0-0.8-0.4-0.8-0.7c0-0.2,0-0.5,0.4-0.6C7.8,11.3,8,11,7.9,10.7c-0.1-0.3-0.4-0.5-0.7-0.4
		c-0.8,0.2-1.3,0.9-1.2,1.8c0.1,0.8,0.8,1.6,1.9,1.6c0.8,0,1.2-0.3,1.4-0.6c0.4-0.5,0.4-1.1,0.4-1.3V9.6z"/>
</g>
</svg>
