<?xml version="1.0" encoding="utf-8"?>
<!-- Generator: Adobe Illustrator 19.0.0, SVG Export Plug-In . SVG Version: 6.00 Build 0)  -->
<svg version="1.1" id="Layer_1" xmlns="http://www.w3.org/2000/svg" xmlns:xlink="http://www.w3.org/1999/xlink" x="0px" y="0px"
	 viewBox="0 0 20 20" style="enable-background:new 0 0 20 20;" xml:space="preserve">
<style type="text/css">
	.st0{fill:#FFFFFF;}
</style>
<g id="XMLID_2_">
	<path id="XMLID_17_" class="st0" d="M12.9,4.4h-1.5c-0.1-0.7-0.7-1.3-1.4-1.3S8.7,3.7,8.6,4.4H7.1C6.5,4.4,6,4.9,6,5.5v7.2
		c0,0.6,0.5,1.1,1.1,1.1h5.8c0.6,0,1.1-0.5,1.1-1.1V5.5C14,4.9,13.5,4.4,12.9,4.4z M10,4.1c0.3,0,0.5,0.2,0.5,0.5
		C10.5,4.8,10.3,5,10,5S9.5,4.8,9.5,4.6C9.5,4.3,9.7,4.1,10,4.1z M13,12.8H7V5.4h1c0,0,0,0,0,0V6c0,0.2,0.2,0.4,0.4,0.4h3.2
		C11.8,6.4,12,6.3,12,6V5.4c0,0,0,0,0,0h1V12.8z"/>
	<g id="XMLID_3_">
		<polygon id="XMLID_11_" class="st0" points="8.5,9.2 7.7,8.4 8.1,7.9 8.5,8.3 9.5,7.4 9.9,7.9 		"/>
	</g>
	<polygon id="XMLID_24_" class="st0" points="10.5,8.2 9.8,8.8 12,8.8 12,8.2 	"/>
	<circle id="XMLID_4_" class="st0" cx="8.3" cy="10.5" r="0.5"/>
	<rect id="XMLID_15_" x="9.3" y="10.1" class="st0" width="2.7" height="0.8"/>
</g>
</svg>
