<?xml version="1.0" encoding="utf-8"?>
<!-- Generator: Adobe Illustrator 19.0.0, SVG Export Plug-In . SVG Version: 6.00 Build 0)  -->
<svg version="1.1" id="Layer_1" xmlns="http://www.w3.org/2000/svg" xmlns:xlink="http://www.w3.org/1999/xlink" x="0px" y="0px"
	 viewBox="0 0 20 20" style="enable-background:new 0 0 20 20;" xml:space="preserve">
<style type="text/css">
	.st0{fill:#FFFFFF;}
</style>
<g id="XMLID_7_">
	<path id="XMLID_23_" class="st0" d="M12.7,6.5l-2-2h-0.1c-0.1,0-0.2,0.1-0.2,0.2v2c0,0.1,0.1,0.2,0.2,0.2h2.1
		c0.2,0,0.2-0.1,0.2-0.1C12.8,6.6,12.7,6.6,12.7,6.5z"/>
	<polygon id="XMLID_13_" class="st0" points="11,12 11,10.7 13.9,7.9 15.1,9.1 12.3,12 	"/>
	<path id="XMLID_27_" class="st0" d="M16.1,7.6L15.5,7c-0.2-0.2-0.5-0.2-0.7,0l-0.5,0.4l1.3,1.3L16,8.3C16.2,8.1,16.2,7.8,16.1,7.6z
		"/>
	<path id="XMLID_29_" class="st0" d="M12.8,7.4c0,0-0.1,0-0.2,0h-2.3c-0.2,0-0.4-0.2-0.4-0.4V4.7c0-0.1,0-0.1,0-0.2H6.4
		c-0.3,0-0.6,0.3-0.6,0.6v8c0,0.3,0.3,0.6,0.6,0.6h5.7c0.3,0,0.6-0.3,0.6-0.6v-0.9l-0.3,0.3H11c-0.1,0.1-0.1,0.1-0.2,0.1
		c0,0,0,0,0,0c-0.1,0-0.7-0.1-1.1-0.4c-0.2-0.2-0.3-0.2-0.4-0.2c0,0,0,0,0,0C9.2,12.3,9,12.3,9,12.3c-0.2,0-0.3-0.2-0.5-0.5
		c0-0.1-0.1-0.2-0.1-0.3c0,0,0,0.1,0,0.1c-0.1,0.3-0.2,0.8-0.7,0.9c-0.4,0.1-0.6,0.1-0.8-0.1c-0.1-0.1-0.1-0.2-0.1-0.3
		C6.8,12.1,7,12,7.1,12c0,0,0.1,0,0.1,0c0,0,0.1,0,0.3,0c0.1,0,0.2-0.2,0.2-0.5C7.9,11.2,8,11,8.2,10.8c0.1,0,0.2-0.1,0.3,0
		c0.2,0.1,0.4,0.3,0.5,0.7c0,0,0.1,0,0.1,0c0.3-0.1,0.6,0,0.9,0.2c0.1,0.1,0.3,0.2,0.5,0.2v-1.5l2.3-2.2V7.4z"/>
</g>
</svg>
