<?xml version="1.0" encoding="utf-8"?>
<!-- Generator: Adobe Illustrator 19.0.0, SVG Export Plug-In . SVG Version: 6.00 Build 0)  -->
<svg version="1.1" id="Layer_1" xmlns="http://www.w3.org/2000/svg" xmlns:xlink="http://www.w3.org/1999/xlink" x="0px" y="0px"
	 viewBox="0 0 20 20" style="enable-background:new 0 0 20 20;" xml:space="preserve">
<style type="text/css">
	.st0{fill:#FFFFFF;}
</style>
<path id="XMLID_12_" class="st0" d="M14.6,5.8h-4.2L8.9,4.3H5.7C5,4.3,4.5,4.9,4.5,5.5v5.9c0,0.7,0.5,1.2,1.2,1.2h8.7
	c0.7,0,1.2-0.5,1.2-1.2V8.1V6.9V6.7C15.5,6.2,15.1,5.8,14.6,5.8z M12.3,9.9L12.3,9.9l-1.6,0v1c0,0.2-0.2,0.4-0.4,0.4H9.7
	c-0.2,0-0.4-0.2-0.4-0.4v-1H7.7l0,0c-0.1-0.2-0.1-0.4,0-0.5l2.1-2.1c0.2-0.1,0.4-0.1,0.5,0l2.1,2.1C12.5,9.5,12.5,9.7,12.3,9.9z"/>
</svg>
