<?xml version="1.0" encoding="utf-8"?>
<!-- Generator: Adobe Illustrator 19.0.0, SVG Export Plug-In . SVG Version: 6.00 Build 0)  -->
<svg version="1.1" id="Layer_1" xmlns="http://www.w3.org/2000/svg" xmlns:xlink="http://www.w3.org/1999/xlink" x="0px" y="0px"
	 viewBox="0 0 20 20" style="enable-background:new 0 0 20 20;" xml:space="preserve">
<style type="text/css">
	.st0{fill:#FFFFFF;}
</style>
<path class="st0" d="M11.8,9.9c-0.6,0-0.8,0.3-1.8,0.3S8.8,9.9,8.2,9.9c-1.5,0-2.6,1.2-2.6,2.6v0.5C5.6,13.6,6,14,6.6,14h6.9
	c0.5,0,0.9-0.4,0.9-0.9v-0.5C14.4,11.1,13.2,9.9,11.8,9.9z M13.4,13.1H6.6v-0.5c0-0.9,0.8-1.7,1.7-1.7c0.3,0,0.7,0.3,1.8,0.3
	c1,0,1.5-0.3,1.8-0.3c0.9,0,1.7,0.8,1.7,1.7V13.1z M10,9.6c1.6,0,2.8-1.3,2.8-2.8S11.6,4,10,4S7.2,5.3,7.2,6.8S8.4,9.6,10,9.6z
	 M10,4.9c1,0,1.9,0.8,1.9,1.9S11,8.7,10,8.7S8.1,7.8,8.1,6.8S9,4.9,10,4.9z"/>
</svg>
